<svg width="201" height="38" viewBox="0 0 201 38" fill="none" xmlns="http://www.w3.org/2000/svg">
<g clip-path="url(#clip0_965_8204)">
<path d="M18.3492 6.67463L7.85029 19.5206C3.38968 18.7412 0 14.8249 0 10.1098C0 4.83675 4.25025 0.55957 9.49015 0.55957C13.53 0.55957 16.9819 3.09989 18.3492 6.67463Z" fill="#D0F603"/>
<path d="M30.0242 19.1115L44.8021 37.168H32.6585C31.009 37.168 29.4696 36.4944 28.5564 35.3782L23.1349 28.7291L22.6376 28.1325L22.1452 28.7291L16.7236 35.3782C15.8105 36.4944 14.271 37.168 12.6216 37.168H0.478027L16.7236 17.2977C17.1348 16.8839 17.5077 16.4268 17.8328 15.9409L17.8424 15.9313L28.5564 2.8303C29.4696 1.7141 31.009 1.04053 32.6585 1.04053H44.8021L30.0242 19.097H30.0337L30.0242 19.1115Z" fill="#D0F603"/>
<path d="M56.1496 7.74215H75.1206C79.0125 7.74215 80.7288 8.07412 81.9814 9.13739C83.2671 10.167 83.86 12.0578 83.86 15.0456C83.86 19.164 82.8706 20.7902 80.064 21.4204C82.8033 21.8871 83.6258 23.0466 83.5635 26.4001V29.8882H76.765V27.1314C76.7318 24.7402 76.0721 24.2446 73.0696 24.3072H62.8098V29.8834H56.145V7.7373L56.1496 7.74215ZM73.2706 18.8946C76.5023 18.8946 77.1334 18.4952 77.1334 16.3061C77.1334 14.8772 76.9997 14.2806 76.5742 13.8139C76.0767 13.2847 75.5175 13.1836 73.5048 13.1836H62.8144V18.8946H73.2752H73.2706Z" fill="white"/>
<path d="M100.689 27.1309C99.9292 29.6568 98.5762 30.2534 93.5608 30.2534C87.0256 30.2534 85.5098 29.3249 85.5098 25.2401C85.5098 22.3197 86.5332 20.8571 88.9424 20.3904C90.2287 20.1258 91.7154 20.0584 95.0144 20.0584C98.7772 20.0584 99.9629 20.4915 100.527 21.9829V20.2894C100.527 17.8982 100.03 17.6336 95.7746 17.6336C92.3756 17.6336 91.945 17.7683 91.8496 18.8941H86.1745C86.275 16.8686 86.8679 15.9064 88.4501 15.0404C89.9659 14.2417 91.7154 14.0107 96.7976 14.0107C100.89 14.0107 102.803 14.2754 104.189 15.0404C105.246 15.6369 106.006 16.7676 106.269 18.2302C106.336 18.5413 106.369 19.2277 106.369 20.2894V29.8878H100.694V27.1309H100.689ZM91.1179 24.9707C91.1179 25.8656 91.6772 26.3996 92.8679 26.5969C93.2644 26.6642 94.0246 26.6979 96.0664 26.6979C98.1078 26.6979 98.8726 26.6305 99.5323 26.4333C100.192 26.2697 100.623 25.6347 100.623 24.937C100.623 23.5418 99.7665 23.2435 95.6073 23.2435C92.0455 23.2435 91.1179 23.6091 91.1179 24.9707Z" fill="white"/>
<path d="M108.736 14.3822H114.248V17.5384C114.712 16.0758 115.238 15.3781 116.361 14.7816C117.351 14.2812 118.871 14.0166 120.75 14.0166C124.742 14.0166 127.085 15.1809 128.008 17.6009C128.667 15.0462 130.58 14.0166 134.672 14.0166C140.61 14.0166 143.053 16.1431 143.053 21.32V29.8888H137.378V21.753C137.378 19.2272 136.456 18.5007 133.219 18.5007C129.719 18.5007 128.73 19.3619 128.73 22.518V29.8888H123.055V22.0513C123.055 19.0635 122.361 18.467 118.895 18.467C115.429 18.467 114.406 19.3619 114.406 22.0513V29.8888H108.731V14.3822H108.736Z" fill="white"/>
<path d="M150.836 17.6346C151.597 14.6132 152.816 14.0166 158.027 14.0166C162.019 14.0166 164.261 14.5458 165.715 15.8449C166.872 16.8408 167.264 18.467 167.264 22.0561C167.264 25.8426 166.8 27.5025 165.447 28.6331C164.06 29.8263 162.014 30.2593 157.893 30.2593C153.342 30.2593 151.391 29.3644 150.832 27.0069V36.6341H145.157V14.3871H150.832V17.6394L150.836 17.6346ZM151.86 18.8326C151.133 19.3955 150.87 20.2616 150.87 22.1524C150.87 25.5395 151.463 25.9388 156.411 25.9388C159.117 25.9388 159.939 25.8041 160.504 25.3422C161.197 24.7456 161.426 23.9133 161.426 21.9551C161.426 18.9 160.599 18.2697 156.545 18.2697C153.442 18.2697 152.453 18.4044 151.86 18.8326Z" fill="white"/>
<path d="M178.417 18.832L168.024 7.74219H176.868L183.93 15.6759L191.125 7.74219H199.735L189.375 18.731L200.429 29.8882H191.321L183.93 21.9208L176.505 29.8882H167.464L178.417 18.832Z" fill="white"/>
</g>
<defs>
<clipPath id="clip0_965_8204">
<rect width="201" height="36.8807" fill="white" transform="translate(0 0.55957)"/>
</clipPath>
</defs>
</svg>
